# xmcd
#
# Track frame offsets:
#	150
#	13190
#	27842
#	42120
#	57657
#	78277
#	91667
#	111015
#	126210
#	142670
#	161692
#	177395
#	195482
#	210370
#	229625
#	244227
#	259815
#	275032
#
# Disc length: 3922 seconds
#
# Revision: 1
# Processed by: cddbd v1.5.1PL0 Copyright (c) Steve Scherf et al.
# Submitted via: CDex 1.50Beta5
#
DISCID=ee0f5012
DTITLE=伊藤咲子 - ゴールデン☆ベスト
DYEAR=2002
DGENRE=Pop
TTITLE0=ひまわり娘
TTITLE1=夢みる頃
TTITLE2=待ちこがれて
TTITLE3=木枯らしの二人
TTITLE4=赤ちゃんみたいな女の子
TTITLE5=青い麦
TTITLE6=白い灯台
TTITLE7=乙女のワルツ
TTITLE8=紅い花
TTITLE9=冬の星
TTITLE10=きみ可愛いね
TTITLE11=いい娘に逢ったらドキッ
TTITLE12=青い鳥逃げても
TTITLE13=ごきげん如何
TTITLE14=愛のシルフィー
TTITLE15=何が私に起こったか
TTITLE16=寒い夏
TTITLE17=夢ごこち
EXTD=
EXTT0=
EXTT1=
EXTT2=
EXTT3=
EXTT4=
EXTT5=
EXTT6=
EXTT7=
EXTT8=
EXTT9=
EXTT10=
EXTT11=
EXTT12=
EXTT13=
EXTT14=
EXTT15=
EXTT16=
EXTT17=
PLAYORDER=
